<svg width="16" height="16" viewBox="0 0 16 16" fill="none" xmlns="http://www.w3.org/2000/svg">
<path fill-rule="evenodd" clip-rule="evenodd" d="M4.83333 3.00002C3.45674 3.00002 2.33333 4.12451 2.33333 5.52085C2.33333 6.40772 2.85367 7.32238 3.67469 8.27245C5.01236 9.8204 6.5613 11.438 8 12.7658C9.4387 11.438 10.9876 9.8204 12.3253 8.27245C13.1463 7.32238 13.6667 6.40772 13.6667 5.52085C13.6667 4.12451 12.5433 3.00002 11.1667 3.00002C10.5719 3.00002 10.0268 3.20865 9.59715 3.55858C9.14382 3.92783 8.90558 4.1931 8.77318 4.35567C8.73902 4.39762 8.7102 4.43482 8.68383 4.4693C8.67924 4.47531 8.67429 4.4818 8.66911 4.4886C8.64845 4.51571 8.62399 4.54781 8.60301 4.57394C8.58036 4.60214 8.52914 4.6655 8.45998 4.72325C8.39028 4.78145 8.22372 4.90068 7.9795 4.89588C7.73823 4.89113 7.57792 4.76804 7.51314 4.71121C7.44737 4.65353 7.3984 4.59088 7.37666 4.56291C7.34205 4.51841 7.32362 4.49319 7.30622 4.46939C7.28384 4.43878 7.26319 4.41053 7.21206 4.34661C7.08329 4.18563 6.85006 3.92284 6.40285 3.55858C5.97323 3.20865 5.42813 3.00002 4.83333 3.00002ZM1 5.52085C1 3.39638 2.71213 1.66669 4.83333 1.66669C5.74678 1.66669 6.58679 1.98874 7.2449 2.52479C7.57567 2.7942 7.81746 3.02579 7.99811 3.21926C8.17992 3.02672 8.42305 2.79525 8.7551 2.52479C9.41321 1.98874 10.2532 1.66669 11.1667 1.66669C13.2879 1.66669 15 3.39638 15 5.52085C15 6.90982 14.2027 8.13921 13.3341 9.14425C11.8961 10.8083 10.2164 12.5547 8.66966 13.9605C8.28974 14.3058 7.71026 14.3058 7.33034 13.9605C5.78359 12.5547 4.1039 10.8083 2.66585 9.14425C1.79733 8.13921 1 6.90982 1 5.52085Z" fill="#2B2D33"/>
</svg>
